<mxfile host="app.diagrams.net" agent="Mozilla/5.0 (X11; Linux x86_64) AppleWebKit/537.36 (KHTML, like Gecko) Chrome/138.0.0.0 Safari/537.36" version="28.2.3">
  <diagram name="第 1 页" id="k_nHkI2DBGjTYLYa_qYr">
    <mxGraphModel dx="3508" dy="1960" grid="1" gridSize="10" guides="1" tooltips="1" connect="1" arrows="1" fold="1" page="1" pageScale="1" pageWidth="2339" pageHeight="3300" math="0" shadow="0">
      <root>
        <mxCell id="0" />
        <mxCell id="1" parent="0" />
        <mxCell id="ZcWyejCCKngTNAfOxGtZ-1" value="" style="rounded=0;whiteSpace=wrap;html=1;fillColor=none;dashed=1;strokeWidth=5;" vertex="1" parent="1">
          <mxGeometry x="50" y="30" width="750" height="500" as="geometry" />
        </mxCell>
        <mxCell id="ZcWyejCCKngTNAfOxGtZ-2" style="edgeStyle=orthogonalEdgeStyle;rounded=0;orthogonalLoop=1;jettySize=auto;html=1;exitX=0.5;exitY=1;exitDx=0;exitDy=0;entryX=0.5;entryY=0;entryDx=0;entryDy=0;fontFamily=Helvetica;fontSize=12;fontColor=default;" edge="1" parent="1" source="ZcWyejCCKngTNAfOxGtZ-3" target="ZcWyejCCKngTNAfOxGtZ-5">
          <mxGeometry relative="1" as="geometry" />
        </mxCell>
        <mxCell id="ZcWyejCCKngTNAfOxGtZ-3" value="MPI Application" style="rounded=1;whiteSpace=wrap;html=1;fillColor=none;" vertex="1" parent="1">
          <mxGeometry x="940" y="235" width="180" height="50" as="geometry" />
        </mxCell>
        <mxCell id="ZcWyejCCKngTNAfOxGtZ-4" style="edgeStyle=orthogonalEdgeStyle;rounded=0;orthogonalLoop=1;jettySize=auto;html=1;exitX=0.5;exitY=1;exitDx=0;exitDy=0;entryX=0.5;entryY=0;entryDx=0;entryDy=0;fontFamily=Helvetica;fontSize=12;fontColor=default;" edge="1" parent="1" source="ZcWyejCCKngTNAfOxGtZ-5" target="ZcWyejCCKngTNAfOxGtZ-7">
          <mxGeometry relative="1" as="geometry" />
        </mxCell>
        <mxCell id="ZcWyejCCKngTNAfOxGtZ-5" value="MPI_Send" style="rounded=1;whiteSpace=wrap;html=1;fillColor=none;" vertex="1" parent="1">
          <mxGeometry x="940" y="305" width="180" height="50" as="geometry" />
        </mxCell>
        <mxCell id="ZcWyejCCKngTNAfOxGtZ-6" style="edgeStyle=orthogonalEdgeStyle;rounded=0;orthogonalLoop=1;jettySize=auto;html=1;exitX=0.5;exitY=1;exitDx=0;exitDy=0;entryX=0.5;entryY=0;entryDx=0;entryDy=0;fontFamily=Helvetica;fontSize=12;fontColor=default;" edge="1" parent="1" source="ZcWyejCCKngTNAfOxGtZ-7" target="ZcWyejCCKngTNAfOxGtZ-9">
          <mxGeometry relative="1" as="geometry" />
        </mxCell>
        <mxCell id="ZcWyejCCKngTNAfOxGtZ-7" value="PML/ob1" style="rounded=1;whiteSpace=wrap;html=1;fillColor=none;" vertex="1" parent="1">
          <mxGeometry x="940" y="375" width="180" height="50" as="geometry" />
        </mxCell>
        <mxCell id="ZcWyejCCKngTNAfOxGtZ-8" style="edgeStyle=orthogonalEdgeStyle;rounded=0;orthogonalLoop=1;jettySize=auto;html=1;exitX=0.5;exitY=1;exitDx=0;exitDy=0;entryX=0.5;entryY=0;entryDx=0;entryDy=0;fontFamily=Helvetica;fontSize=12;fontColor=default;" edge="1" parent="1" source="ZcWyejCCKngTNAfOxGtZ-9" target="ZcWyejCCKngTNAfOxGtZ-10">
          <mxGeometry relative="1" as="geometry" />
        </mxCell>
        <mxCell id="ZcWyejCCKngTNAfOxGtZ-9" value="OPAL/BTL" style="rounded=1;whiteSpace=wrap;html=1;fillColor=none;" vertex="1" parent="1">
          <mxGeometry x="940" y="445" width="180" height="50" as="geometry" />
        </mxCell>
        <mxCell id="ZcWyejCCKngTNAfOxGtZ-10" value="BTL/sm (shared memory)" style="rounded=1;whiteSpace=wrap;html=1;fillColor=none;" vertex="1" parent="1">
          <mxGeometry x="940" y="515" width="180" height="50" as="geometry" />
        </mxCell>
        <mxCell id="ZcWyejCCKngTNAfOxGtZ-11" style="edgeStyle=orthogonalEdgeStyle;rounded=0;orthogonalLoop=1;jettySize=auto;html=1;exitX=0.5;exitY=1;exitDx=0;exitDy=0;entryX=0.5;entryY=0;entryDx=0;entryDy=0;" edge="1" parent="1" source="ZcWyejCCKngTNAfOxGtZ-12" target="ZcWyejCCKngTNAfOxGtZ-14">
          <mxGeometry relative="1" as="geometry" />
        </mxCell>
        <mxCell id="ZcWyejCCKngTNAfOxGtZ-12" value="mca_btl_sm_prepare_src" style="rounded=1;whiteSpace=wrap;html=1;fillColor=none;" vertex="1" parent="1">
          <mxGeometry x="939" y="585" width="180" height="50" as="geometry" />
        </mxCell>
        <mxCell id="ZcWyejCCKngTNAfOxGtZ-14" value="mca_btl_sm_send" style="rounded=1;whiteSpace=wrap;html=1;fillColor=none;" vertex="1" parent="1">
          <mxGeometry x="940" y="655" width="180" height="50" as="geometry" />
        </mxCell>
        <mxCell id="ZcWyejCCKngTNAfOxGtZ-15" style="edgeStyle=orthogonalEdgeStyle;rounded=0;orthogonalLoop=1;jettySize=auto;html=1;exitX=0.5;exitY=1;exitDx=0;exitDy=0;entryX=0.509;entryY=-0.02;entryDx=0;entryDy=0;entryPerimeter=0;" edge="1" parent="1" source="ZcWyejCCKngTNAfOxGtZ-10" target="ZcWyejCCKngTNAfOxGtZ-12">
          <mxGeometry relative="1" as="geometry" />
        </mxCell>
        <mxCell id="ZcWyejCCKngTNAfOxGtZ-16" style="edgeStyle=orthogonalEdgeStyle;rounded=0;orthogonalLoop=1;jettySize=auto;html=1;exitX=0.5;exitY=1;exitDx=0;exitDy=0;" edge="1" parent="1" source="ZcWyejCCKngTNAfOxGtZ-20" target="ZcWyejCCKngTNAfOxGtZ-22">
          <mxGeometry relative="1" as="geometry" />
        </mxCell>
        <mxCell id="ZcWyejCCKngTNAfOxGtZ-17" value="Yes" style="edgeLabel;html=1;align=center;verticalAlign=middle;resizable=0;points=[];" vertex="1" connectable="0" parent="ZcWyejCCKngTNAfOxGtZ-16">
          <mxGeometry x="-0.3718" y="1" relative="1" as="geometry">
            <mxPoint x="-40" as="offset" />
          </mxGeometry>
        </mxCell>
        <mxCell id="ZcWyejCCKngTNAfOxGtZ-18" style="edgeStyle=orthogonalEdgeStyle;rounded=0;orthogonalLoop=1;jettySize=auto;html=1;exitX=1;exitY=0.5;exitDx=0;exitDy=0;entryX=0.5;entryY=0;entryDx=0;entryDy=0;" edge="1" parent="1" source="ZcWyejCCKngTNAfOxGtZ-20" target="ZcWyejCCKngTNAfOxGtZ-24">
          <mxGeometry relative="1" as="geometry" />
        </mxCell>
        <mxCell id="ZcWyejCCKngTNAfOxGtZ-19" value="No" style="edgeLabel;html=1;align=center;verticalAlign=middle;resizable=0;points=[];" vertex="1" connectable="0" parent="ZcWyejCCKngTNAfOxGtZ-18">
          <mxGeometry x="-0.5654" y="-1" relative="1" as="geometry">
            <mxPoint as="offset" />
          </mxGeometry>
        </mxCell>
        <mxCell id="ZcWyejCCKngTNAfOxGtZ-20" value="inline send?&lt;div&gt;(if data is continuous and&lt;/div&gt;&lt;div&gt;not on device)&lt;/div&gt;" style="rhombus;whiteSpace=wrap;html=1;" vertex="1" parent="1">
          <mxGeometry x="264" y="210" width="180" height="80" as="geometry" />
        </mxCell>
        <mxCell id="ZcWyejCCKngTNAfOxGtZ-21" style="edgeStyle=orthogonalEdgeStyle;rounded=0;orthogonalLoop=1;jettySize=auto;html=1;exitX=0.5;exitY=1;exitDx=0;exitDy=0;entryX=0.5;entryY=0;entryDx=0;entryDy=0;" edge="1" parent="1" source="ZcWyejCCKngTNAfOxGtZ-22" target="ZcWyejCCKngTNAfOxGtZ-31">
          <mxGeometry relative="1" as="geometry" />
        </mxCell>
        <mxCell id="ZcWyejCCKngTNAfOxGtZ-22" value="set frag-&amp;gt;seg[1].addr = addr&lt;div&gt;set frag-&amp;gt;seg[1].size = size&lt;/div&gt;&lt;div&gt;(addr and size are prepare_src&#39;s args)&lt;/div&gt;" style="rounded=1;whiteSpace=wrap;html=1;fillColor=none;" vertex="1" parent="1">
          <mxGeometry x="90" y="330" width="230" height="60" as="geometry" />
        </mxCell>
        <mxCell id="ZcWyejCCKngTNAfOxGtZ-23" style="edgeStyle=orthogonalEdgeStyle;rounded=0;orthogonalLoop=1;jettySize=auto;html=1;exitX=0.5;exitY=1;exitDx=0;exitDy=0;entryX=0.5;entryY=0;entryDx=0;entryDy=0;" edge="1" parent="1" source="ZcWyejCCKngTNAfOxGtZ-24" target="ZcWyejCCKngTNAfOxGtZ-31">
          <mxGeometry relative="1" as="geometry" />
        </mxCell>
        <mxCell id="ZcWyejCCKngTNAfOxGtZ-24" value="pack data into frag-&amp;gt;seg[0].addr + reserve&lt;div&gt;update frag-&amp;gt;seg[0].size&lt;br&gt;&lt;div&gt;(reserve is prepare_src&#39;s arg)&lt;/div&gt;&lt;/div&gt;" style="rounded=1;whiteSpace=wrap;html=1;fillColor=none;container=1;" vertex="1" parent="1">
          <mxGeometry x="390" y="330" width="230" height="60" as="geometry" />
        </mxCell>
        <mxCell id="ZcWyejCCKngTNAfOxGtZ-28" value="&lt;div&gt;if inline send:&lt;/div&gt;&lt;div&gt;&amp;nbsp; &amp;nbsp; seg[0] = head info&lt;/div&gt;&lt;div&gt;&amp;nbsp; &amp;nbsp; seg[1] = buffer addr&lt;/div&gt;&lt;div&gt;else&lt;/div&gt;&lt;div&gt;&amp;nbsp; &amp;nbsp; seg[0] = head info + buffer contents&lt;/div&gt;&lt;div&gt;&amp;nbsp; &amp;nbsp; seg[1] is useless&lt;/div&gt;" style="shape=note;whiteSpace=wrap;html=1;backgroundOutline=1;darkOpacity=0.05;align=left;fillColor=none;" vertex="1" parent="1">
          <mxGeometry x="530" y="210" width="220" height="100" as="geometry" />
        </mxCell>
        <mxCell id="ZcWyejCCKngTNAfOxGtZ-29" value="What happen in prepare_src" style="text;html=1;align=left;verticalAlign=middle;whiteSpace=wrap;rounded=0;fontSize=30;" vertex="1" parent="1">
          <mxGeometry x="70" y="40" width="390" height="30" as="geometry" />
        </mxCell>
        <mxCell id="ZcWyejCCKngTNAfOxGtZ-31" value="return &amp;amp;frag-&amp;gt;base" style="rounded=1;whiteSpace=wrap;html=1;fillColor=none;" vertex="1" parent="1">
          <mxGeometry x="239" y="440" width="230" height="60" as="geometry" />
        </mxCell>
        <mxCell id="ZcWyejCCKngTNAfOxGtZ-32" value="" style="shape=flexArrow;endArrow=classic;html=1;rounded=0;entryX=1;entryY=0.5;entryDx=0;entryDy=0;" edge="1" parent="1" target="ZcWyejCCKngTNAfOxGtZ-1">
          <mxGeometry width="50" height="50" relative="1" as="geometry">
            <mxPoint x="940" y="610" as="sourcePoint" />
            <mxPoint x="870" y="610" as="targetPoint" />
            <Array as="points">
              <mxPoint x="880" y="610" />
              <mxPoint x="880" y="280" />
            </Array>
          </mxGeometry>
        </mxCell>
        <mxCell id="ZcWyejCCKngTNAfOxGtZ-33" style="edgeStyle=orthogonalEdgeStyle;rounded=0;orthogonalLoop=1;jettySize=auto;html=1;exitX=0.5;exitY=1;exitDx=0;exitDy=0;entryX=0.5;entryY=0;entryDx=0;entryDy=0;fontFamily=Helvetica;fontSize=12;fontColor=default;" edge="1" parent="1" source="ZcWyejCCKngTNAfOxGtZ-34" target="ZcWyejCCKngTNAfOxGtZ-36">
          <mxGeometry relative="1" as="geometry" />
        </mxCell>
        <mxCell id="ZcWyejCCKngTNAfOxGtZ-34" value="MPI_Recv" style="rounded=1;whiteSpace=wrap;html=1;fillColor=none;" vertex="1" parent="1">
          <mxGeometry x="2071" y="305" width="180" height="50" as="geometry" />
        </mxCell>
        <mxCell id="ZcWyejCCKngTNAfOxGtZ-35" style="edgeStyle=orthogonalEdgeStyle;rounded=0;orthogonalLoop=1;jettySize=auto;html=1;exitX=0.5;exitY=1;exitDx=0;exitDy=0;entryX=0.5;entryY=0;entryDx=0;entryDy=0;fontFamily=Helvetica;fontSize=12;fontColor=default;" edge="1" parent="1" source="ZcWyejCCKngTNAfOxGtZ-36" target="ZcWyejCCKngTNAfOxGtZ-37">
          <mxGeometry relative="1" as="geometry" />
        </mxCell>
        <mxCell id="ZcWyejCCKngTNAfOxGtZ-36" value="Get data from MPI framework" style="rounded=1;whiteSpace=wrap;html=1;fillColor=none;" vertex="1" parent="1">
          <mxGeometry x="2071" y="375" width="180" height="50" as="geometry" />
        </mxCell>
        <mxCell id="ZcWyejCCKngTNAfOxGtZ-37" value="MPI Application exit" style="rounded=1;whiteSpace=wrap;html=1;fillColor=none;" vertex="1" parent="1">
          <mxGeometry x="2071" y="445" width="180" height="50" as="geometry" />
        </mxCell>
        <mxCell id="ZcWyejCCKngTNAfOxGtZ-38" value="Component close:&lt;div&gt;call free_list deconstructor&lt;/div&gt;" style="rounded=1;whiteSpace=wrap;html=1;fillColor=none;" vertex="1" parent="1">
          <mxGeometry x="2070" y="515" width="180" height="50" as="geometry" />
        </mxCell>
        <mxCell id="ZcWyejCCKngTNAfOxGtZ-39" style="edgeStyle=orthogonalEdgeStyle;rounded=0;orthogonalLoop=1;jettySize=auto;html=1;exitX=0.5;exitY=1;exitDx=0;exitDy=0;entryX=0.509;entryY=-0.02;entryDx=0;entryDy=0;entryPerimeter=0;" edge="1" parent="1" source="ZcWyejCCKngTNAfOxGtZ-37" target="ZcWyejCCKngTNAfOxGtZ-38">
          <mxGeometry relative="1" as="geometry" />
        </mxCell>
        <mxCell id="ZcWyejCCKngTNAfOxGtZ-41" value="alloc_frag" style="rounded=1;whiteSpace=wrap;html=1;fillColor=none;" vertex="1" parent="1">
          <mxGeometry x="239" y="100" width="230" height="60" as="geometry" />
        </mxCell>
      </root>
    </mxGraphModel>
  </diagram>
</mxfile>
